<mxfile host="app.diagrams.net" modified="2023-11-26T23:03:04.440Z" agent="Mozilla/5.0 (Windows NT 10.0; Win64; x64) AppleWebKit/537.36 (KHTML, like Gecko) Chrome/119.0.0.0 Safari/537.36 Edg/119.0.0.0" etag="fke-snYdQyK0S_jIoGHu" version="22.1.4" type="github">
  <diagram name="Page-1" id="e7e014a7-5840-1c2e-5031-d8a46d1fe8dd">
    <mxGraphModel dx="1513" dy="813" grid="1" gridSize="10" guides="1" tooltips="1" connect="1" arrows="1" fold="1" page="1" pageScale="1" pageWidth="1169" pageHeight="826" background="none" math="0" shadow="0">
      <root>
        <mxCell id="0" />
        <mxCell id="1" parent="0" />
        <mxCell id="5" value="" style="ellipse;shape=startState;fillColor=#000000;strokeColor=#ff0000;" parent="1" vertex="1">
          <mxGeometry x="150" y="80" width="30" height="30" as="geometry" />
        </mxCell>
        <mxCell id="6" value="" style="edgeStyle=elbowEdgeStyle;elbow=horizontal;verticalAlign=bottom;endArrow=open;endSize=8;strokeColor=#FF0000;endFill=1;rounded=0;entryX=0;entryY=0.5;entryDx=0;entryDy=0;exitX=1;exitY=0.5;exitDx=0;exitDy=0;" parent="1" source="5" target="7" edge="1">
          <mxGeometry x="230" y="680" as="geometry">
            <mxPoint x="260" y="95" as="targetPoint" />
            <mxPoint x="190" y="95" as="sourcePoint" />
          </mxGeometry>
        </mxCell>
        <mxCell id="WEsiquvMuV68peQLwW6a-46" value="" style="edgeStyle=orthogonalEdgeStyle;rounded=0;orthogonalLoop=1;jettySize=auto;html=1;" edge="1" parent="1" source="7" target="WEsiquvMuV68peQLwW6a-41">
          <mxGeometry relative="1" as="geometry" />
        </mxCell>
        <mxCell id="7" value="disponible" style="" parent="1" vertex="1">
          <mxGeometry x="310" y="70" width="110" height="50" as="geometry" />
        </mxCell>
        <mxCell id="WEsiquvMuV68peQLwW6a-41" value="Supprimer du site" style="" vertex="1" parent="1">
          <mxGeometry x="510" y="70" width="110" height="50" as="geometry" />
        </mxCell>
        <mxCell id="WEsiquvMuV68peQLwW6a-42" value="" style="ellipse;shape=endState;fillColor=#000000;strokeColor=#ff0000" vertex="1" parent="1">
          <mxGeometry x="740" y="80" width="30" height="30" as="geometry" />
        </mxCell>
        <mxCell id="WEsiquvMuV68peQLwW6a-43" value="" style="edgeStyle=elbowEdgeStyle;elbow=horizontal;verticalAlign=bottom;endArrow=open;endSize=8;strokeColor=#FF0000;endFill=1;rounded=0;entryX=0;entryY=0.5;entryDx=0;entryDy=0;exitX=1;exitY=0.5;exitDx=0;exitDy=0;" edge="1" parent="1" source="7" target="WEsiquvMuV68peQLwW6a-41">
          <mxGeometry x="230" y="680" as="geometry">
            <mxPoint x="320" y="105" as="targetPoint" />
            <mxPoint x="190" y="105" as="sourcePoint" />
          </mxGeometry>
        </mxCell>
        <mxCell id="WEsiquvMuV68peQLwW6a-44" value="" style="edgeStyle=elbowEdgeStyle;elbow=horizontal;verticalAlign=bottom;endArrow=open;endSize=8;strokeColor=#FF0000;endFill=1;rounded=0;entryX=0;entryY=0.5;entryDx=0;entryDy=0;exitX=1;exitY=0.5;exitDx=0;exitDy=0;" edge="1" parent="1" source="WEsiquvMuV68peQLwW6a-41" target="WEsiquvMuV68peQLwW6a-42">
          <mxGeometry x="230" y="680" as="geometry">
            <mxPoint x="520" y="105" as="targetPoint" />
            <mxPoint x="430" y="105" as="sourcePoint" />
          </mxGeometry>
        </mxCell>
        <mxCell id="WEsiquvMuV68peQLwW6a-45" value="Ajouter au panier" style="" vertex="1" parent="1">
          <mxGeometry x="310" y="180" width="110" height="50" as="geometry" />
        </mxCell>
        <mxCell id="WEsiquvMuV68peQLwW6a-47" value="" style="edgeStyle=elbowEdgeStyle;elbow=horizontal;verticalAlign=bottom;endArrow=open;endSize=8;strokeColor=#FF0000;endFill=1;rounded=0;entryX=0.5;entryY=0;entryDx=0;entryDy=0;exitX=0.5;exitY=1;exitDx=0;exitDy=0;" edge="1" parent="1" source="7" target="WEsiquvMuV68peQLwW6a-45">
          <mxGeometry x="230" y="680" as="geometry">
            <mxPoint x="520" y="105" as="targetPoint" />
            <mxPoint x="430" y="105" as="sourcePoint" />
          </mxGeometry>
        </mxCell>
        <mxCell id="WEsiquvMuV68peQLwW6a-49" value="Commandé" style="" vertex="1" parent="1">
          <mxGeometry x="310" y="290" width="110" height="50" as="geometry" />
        </mxCell>
        <mxCell id="WEsiquvMuV68peQLwW6a-50" value="" style="edgeStyle=elbowEdgeStyle;elbow=horizontal;verticalAlign=bottom;endArrow=open;endSize=8;strokeColor=#FF0000;endFill=1;rounded=0;entryX=0.5;entryY=0;entryDx=0;entryDy=0;exitX=0.5;exitY=1;exitDx=0;exitDy=0;" edge="1" parent="1" source="WEsiquvMuV68peQLwW6a-45" target="WEsiquvMuV68peQLwW6a-49">
          <mxGeometry x="230" y="680" as="geometry">
            <mxPoint x="375" y="190" as="targetPoint" />
            <mxPoint x="375" y="130" as="sourcePoint" />
          </mxGeometry>
        </mxCell>
        <mxCell id="WEsiquvMuV68peQLwW6a-55" value="Livré" style="" vertex="1" parent="1">
          <mxGeometry x="310" y="388" width="110" height="50" as="geometry" />
        </mxCell>
        <mxCell id="WEsiquvMuV68peQLwW6a-56" value="" style="edgeStyle=elbowEdgeStyle;elbow=horizontal;verticalAlign=bottom;endArrow=open;endSize=8;strokeColor=#FF0000;endFill=1;rounded=0;entryX=0.5;entryY=0;entryDx=0;entryDy=0;exitX=0.5;exitY=1;exitDx=0;exitDy=0;" edge="1" parent="1" source="WEsiquvMuV68peQLwW6a-49" target="WEsiquvMuV68peQLwW6a-55">
          <mxGeometry x="230" y="680" as="geometry">
            <mxPoint x="375" y="410" as="targetPoint" />
            <mxPoint x="364.9999999999998" y="450" as="sourcePoint" />
          </mxGeometry>
        </mxCell>
        <mxCell id="WEsiquvMuV68peQLwW6a-57" value="" style="rhombus;fillColor=#ffffc0;strokeColor=#ff0000;" vertex="1" parent="1">
          <mxGeometry x="325" y="480" width="80" height="40" as="geometry" />
        </mxCell>
        <mxCell id="WEsiquvMuV68peQLwW6a-58" value="" style="edgeStyle=elbowEdgeStyle;elbow=horizontal;verticalAlign=bottom;endArrow=open;endSize=8;strokeColor=#FF0000;endFill=1;rounded=0;entryX=0.5;entryY=0;entryDx=0;entryDy=0;exitX=0.5;exitY=1;exitDx=0;exitDy=0;" edge="1" parent="1" source="WEsiquvMuV68peQLwW6a-55" target="WEsiquvMuV68peQLwW6a-57">
          <mxGeometry x="230" y="680" as="geometry">
            <mxPoint x="375" y="398" as="targetPoint" />
            <mxPoint x="375" y="350" as="sourcePoint" />
          </mxGeometry>
        </mxCell>
        <mxCell id="WEsiquvMuV68peQLwW6a-59" value="" style="edgeStyle=elbowEdgeStyle;elbow=horizontal;verticalAlign=bottom;endArrow=open;endSize=8;strokeColor=#FF0000;endFill=1;rounded=0;entryX=0;entryY=0.5;entryDx=0;entryDy=0;exitX=1;exitY=0.5;exitDx=0;exitDy=0;" edge="1" parent="1" target="WEsiquvMuV68peQLwW6a-62">
          <mxGeometry x="230" y="680" as="geometry">
            <mxPoint x="495" y="499.41" as="targetPoint" />
            <mxPoint x="405" y="499.41" as="sourcePoint" />
          </mxGeometry>
        </mxCell>
        <mxCell id="WEsiquvMuV68peQLwW6a-60" value="no" style="edgeLabel;html=1;align=center;verticalAlign=middle;resizable=0;points=[];" vertex="1" connectable="0" parent="WEsiquvMuV68peQLwW6a-59">
          <mxGeometry relative="1" as="geometry">
            <mxPoint x="-15" y="3" as="offset" />
          </mxGeometry>
        </mxCell>
        <mxCell id="WEsiquvMuV68peQLwW6a-61" value="réclamation?" style="text;html=1;align=center;verticalAlign=middle;resizable=0;points=[];autosize=1;strokeColor=none;fillColor=none;" vertex="1" parent="1">
          <mxGeometry x="320" y="485" width="90" height="30" as="geometry" />
        </mxCell>
        <mxCell id="WEsiquvMuV68peQLwW6a-62" value="" style="ellipse;shape=endState;fillColor=#000000;strokeColor=#ff0000" vertex="1" parent="1">
          <mxGeometry x="520" y="485" width="30" height="30" as="geometry" />
        </mxCell>
        <mxCell id="23" value="yes" style="edgeStyle=elbowEdgeStyle;elbow=horizontal;align=left;verticalAlign=top;endArrow=open;endSize=8;strokeColor=#FF0000;endFill=1;rounded=0" parent="1" edge="1">
          <mxGeometry x="-1" relative="1" as="geometry">
            <mxPoint x="364.5935294117646" y="580.0899999999999" as="targetPoint" />
            <mxPoint x="364.5935294117646" y="520.0017647058824" as="sourcePoint" />
          </mxGeometry>
        </mxCell>
        <mxCell id="WEsiquvMuV68peQLwW6a-67" value="echangé?" style="rhombus;fillColor=#ffffc0;strokeColor=#ff0000;" vertex="1" parent="1">
          <mxGeometry x="325" y="580" width="80" height="40" as="geometry" />
        </mxCell>
        <mxCell id="WEsiquvMuV68peQLwW6a-69" value="Echanger" style="" vertex="1" parent="1">
          <mxGeometry x="180" y="680" width="110" height="50" as="geometry" />
        </mxCell>
        <mxCell id="WEsiquvMuV68peQLwW6a-70" value="Retourner" style="" vertex="1" parent="1">
          <mxGeometry x="440" y="680" width="110" height="50" as="geometry" />
        </mxCell>
        <mxCell id="WEsiquvMuV68peQLwW6a-71" value="yes" style="edgeStyle=elbowEdgeStyle;elbow=horizontal;align=left;verticalAlign=top;endArrow=open;endSize=8;strokeColor=#FF0000;endFill=1;rounded=0;entryX=0.5;entryY=0;entryDx=0;entryDy=0;exitX=0;exitY=0.5;exitDx=0;exitDy=0;" edge="1" parent="1" source="WEsiquvMuV68peQLwW6a-67" target="WEsiquvMuV68peQLwW6a-69">
          <mxGeometry x="-1" relative="1" as="geometry">
            <mxPoint x="344.5935294117646" y="590.0899999999999" as="targetPoint" />
            <mxPoint x="294.9999999999998" y="600" as="sourcePoint" />
            <Array as="points">
              <mxPoint x="235" y="640" />
            </Array>
            <mxPoint as="offset" />
          </mxGeometry>
        </mxCell>
        <mxCell id="WEsiquvMuV68peQLwW6a-72" value="no" style="edgeStyle=elbowEdgeStyle;elbow=horizontal;align=left;verticalAlign=top;endArrow=open;endSize=8;strokeColor=#FF0000;endFill=1;rounded=0;exitX=1;exitY=0.5;exitDx=0;exitDy=0;entryX=0.5;entryY=0;entryDx=0;entryDy=0;" edge="1" parent="1" source="WEsiquvMuV68peQLwW6a-67" target="WEsiquvMuV68peQLwW6a-70">
          <mxGeometry x="-1" relative="1" as="geometry">
            <mxPoint x="520" y="650" as="targetPoint" />
            <mxPoint x="374.5935294117646" y="530.0017647058824" as="sourcePoint" />
            <Array as="points">
              <mxPoint x="495" y="620" />
            </Array>
          </mxGeometry>
        </mxCell>
        <mxCell id="WEsiquvMuV68peQLwW6a-73" value="" style="ellipse;shape=endState;fillColor=#000000;strokeColor=#ff0000" vertex="1" parent="1">
          <mxGeometry x="220" y="770" width="30" height="30" as="geometry" />
        </mxCell>
        <mxCell id="WEsiquvMuV68peQLwW6a-74" value="" style="edgeStyle=elbowEdgeStyle;elbow=vertical;align=left;verticalAlign=top;endArrow=open;endSize=8;strokeColor=#FF0000;endFill=1;rounded=0;exitX=0.5;exitY=1;exitDx=0;exitDy=0;entryX=0.5;entryY=0;entryDx=0;entryDy=0;" edge="1" parent="1" source="WEsiquvMuV68peQLwW6a-69" target="WEsiquvMuV68peQLwW6a-73">
          <mxGeometry x="-1" relative="1" as="geometry">
            <mxPoint x="374.5935294117646" y="590.0899999999999" as="targetPoint" />
            <mxPoint x="374.5935294117646" y="530.0017647058824" as="sourcePoint" />
          </mxGeometry>
        </mxCell>
        <mxCell id="WEsiquvMuV68peQLwW6a-75" value="" style="ellipse;shape=endState;fillColor=#000000;strokeColor=#ff0000" vertex="1" parent="1">
          <mxGeometry x="480" y="770" width="30" height="30" as="geometry" />
        </mxCell>
        <mxCell id="WEsiquvMuV68peQLwW6a-76" value="" style="edgeStyle=elbowEdgeStyle;elbow=vertical;align=left;verticalAlign=top;endArrow=open;endSize=8;strokeColor=#FF0000;endFill=1;rounded=0;exitX=0.5;exitY=1;exitDx=0;exitDy=0;" edge="1" parent="1" source="WEsiquvMuV68peQLwW6a-70" target="WEsiquvMuV68peQLwW6a-75">
          <mxGeometry x="-1" relative="1" as="geometry">
            <mxPoint x="245" y="780" as="targetPoint" />
            <mxPoint x="450" y="740" as="sourcePoint" />
          </mxGeometry>
        </mxCell>
        <mxCell id="WEsiquvMuV68peQLwW6a-79" value="" style="edgeStyle=elbowEdgeStyle;elbow=horizontal;verticalAlign=bottom;endArrow=open;endSize=8;strokeColor=#FF0000;endFill=1;rounded=0;entryX=0.75;entryY=1;entryDx=0;entryDy=0;exitX=0.75;exitY=0;exitDx=0;exitDy=0;" edge="1" parent="1" source="WEsiquvMuV68peQLwW6a-45" target="7">
          <mxGeometry x="230" y="680" as="geometry">
            <mxPoint x="375" y="190" as="targetPoint" />
            <mxPoint x="375" y="130" as="sourcePoint" />
          </mxGeometry>
        </mxCell>
      </root>
    </mxGraphModel>
  </diagram>
</mxfile>
